 <svg  version="1.0" xmlns="http://www.w3.org/2000/svg"  width="200.000000pt" height="200.000000pt" viewBox="0 0 200.000000 200.000000"  preserveAspectRatio="xMidYMid meet">  <g transform="translate(0.000000,200.000000) scale(0.100000,-0.100000)" fill="#ffa500" stroke="none"> <path d="M254 1581 c-67 -41 -64 -20 -64 -512 0 -437 0 -447 21 -473 41 -52 62 -56 275 -56 l196 0 -6 -27 c-18 -78 -18 -100 -2 -106 9 -4 57 4 107 18 79 21 96 30 137 69 l47 46 240 0 c349 0 335 -14 335 337 l0 238 135 135 c85 85 134 143 135 156 0 20 -128 154 -148 154 -5 0 -33 -25 -63 -55 l-53 -54 -11 44 c-7 24 -18 52 -26 61 -35 43 -50 44 -651 44 -546 0 -574 -1 -604 -19z m1221 -46 c14 -13 26 -32 27 -42 6 -77 27 -53 -390 -471 -218 -218 -401 -408 -408 -421 l-12 -23 -209 1 -208 1 -27 30 -28 30 0 429 0 429 26 31 26 31 589 0 590 0 24 -25z m248 -73 l57 -58 -40 -39 -40 -39 -60 59 -60 59 37 38 c21 20 40 37 43 38 3 0 31 -26 63 -58z m-142 -68 c11 -13 3 -25 -54 -82 -64 -63 -67 -65 -85 -49 -19 17 -17 19 47 82 36 36 69 65 72 65 4 0 12 -7 20 -16z m68 -68 l22 -23 -68 -66 -68 -66 -27 25 -26 26 66 64 c37 35 70 63 73 64 3 0 15 -11 28 -24z m-549 -441 c-267 -267 -332 -337 -322 -347 10 -10 80 55 347 322 l335 335 27 -28 28 -27 -331 -331 -330 -330 -75 -19 c-40 -11 -77 -20 -80 -20 -4 0 4 37 16 82 l24 81 328 329 328 328 20 -20 20 -20 -335 -335z m402 -32 c-3 -219 -4 -229 -25 -250 -21 -20 -32 -21 -249 -25 -126 -2 -228 -2 -228 -1 0 3 495 500 500 502 3 0 4 -101 2 -226z"/> <path d="M324 1375 c-9 -23 1 -31 86 -66 44 -18 80 -35 80 -39 0 -3 -37 -22 -82 -41 -64 -27 -83 -39 -83 -54 0 -13 7 -21 20 -22 30 -3 230 99 230 117 0 16 -195 118 -228 119 -10 1 -20 -6 -23 -14z"/> </g> </svg> 